<svg width="1440" height="32" viewBox="0 0 1440 32" fill="none" preserveAspectRatio="none" xmlns="http://www.w3.org/2000/svg">
<path d="M1440 19.6615C1417.61 15.7278 1394.91 10.5895 1350.12 10.5895C1285.45 10.5895 1286.08 21.2387 1220.75 21.2387C1160.44 21.2387 1153.52 12.1827 1090.7 12.1827C1039.16 12.1804 1039.79 19.8901 960.626 19.8901C860.108 19.8901 872.044 0.00439453 748.901 0.00439453C623.25 0.00439453 611.944 27.8444 476.235 27.8444C363.15 27.8444 343.665 15.3004 260.73 15.3004C174.037 15.3004 148.23 26.4021 90.0113 26.4021C45.0113 26.4021 22.5113 23.6113 0.0112534 19.657V31.9998H1440V19.6615Z" fill="white"/>
</svg>
