<svg width="1440" height="32" viewBox="0 0 1440 32" fill="none" xmlns="http://www.w3.org/2000/svg">
<path d="M1440 19.66C1417.61 15.7257 1394.91 10.5867 1350.12 10.5867C1285.45 10.5867 1286.08 21.2373 1220.75 21.2373C1160.44 21.2373 1153.52 12.18 1090.7 12.18C1039.16 12.1777 1039.79 19.8886 960.623 19.8886C860.103 19.8886 872.039 0 748.896 0C623.244 0 611.937 27.844 476.227 27.844C363.142 27.844 343.656 15.2982 260.721 15.2982C174.028 15.2982 148.22 26.4015 90.0007 26.4015C45.0004 26.4015 22.5002 23.6102 0 19.6554V32H1440V19.66Z" fill="#EDEAE8"/>
</svg>
